<svg role="img" viewBox="0 0 105.833 105.833" xmlns="http://www.w3.org/2000/svg"><path d="M52.916 2.117a50.8 50.8 0 0 0-50.8 50.8 50.8 50.8 0 0 0 50.8 50.8 50.8 50.8 0 0 0 50.8-50.8 50.8 50.8 0 0 0-50.8-50.8zM29.633 25.4H76.2a4.224 4.224 0 0 1 4.233 4.233V44.45a4.224 4.224 0 0 1-4.233 4.233H29.633A4.224 4.224 0 0 1 25.4 44.45V29.633a4.224 4.224 0 0 1 4.233-4.233zm7.409 4.233a7.408 7.408 0 0 0-7.409 7.409 7.408 7.408 0 0 0 7.409 7.408 7.408 7.408 0 0 0 7.408-7.408 7.408 7.408 0 0 0-7.408-7.409zM29.633 57.15H76.2a4.224 4.224 0 0 1 4.233 4.233V76.2a4.224 4.224 0 0 1-4.233 4.233H29.633A4.224 4.224 0 0 1 25.4 76.2V61.383a4.224 4.224 0 0 1 4.233-4.233zm39.158 4.233a7.408 7.408 0 0 0-7.408 7.408 7.408 7.408 0 0 0 7.408 7.409 7.408 7.408 0 0 0 7.409-7.41 7.408 7.408 0 0 0-7.409-7.408z" fill="#c51162"/></svg>
