<svg xmlns="http://www.w3.org/2000/svg" width="416" height="472" viewBox="0 0 110.067 124.883"><path d="M74.083 53.944L33.867 94.16v5.323h40.216z" fill="#ffa000"/><path d="M55.033 4.233a50.8 50.8 0 00-50.8 50.8 50.8 50.8 0 0050.8 50.8 50.8 50.8 0 0050.8-50.8 50.8 50.8 0 00-50.8-50.8zm0 8.467a42.333 42.333 0 0142.334 42.333 42.333 42.333 0 01-16.934 33.815V55.033a25.4 25.4 0 00-7.45-17.949l7.45-7.45h-25.4a25.4 25.4 0 00-17.949 7.45l-.011-.011-11.974 11.974-5.986 5.986 5.986 5.987L34.08 70 22.276 81.805A42.333 42.333 0 0112.7 55.033 42.333 42.333 0 0155.033 12.7zm0 25.4a16.933 16.933 0 0116.934 16.933v38.744a42.333 42.333 0 01-16.934 3.59 42.333 42.333 0 01-26.771-9.575l4.32-4.321 7.765-7.764L46.054 70l-2.994-2.993-2.994-2.993-8.98-8.98L43.06 43.06l.007.007A16.933 16.933 0 0155.033 38.1zM40.066 64.014l8.449-8.448a5.292 5.292 0 002.285.526 5.292 5.292 0 005.292-5.292 5.292 5.292 0 00-5.292-5.292 5.292 5.292 0 00-5.292 5.292 5.292 5.292 0 003.006 4.765zM22.225 110.067a5.292 5.292 0 00-5.292 5.291 5.292 5.292 0 005.292 5.292 5.292 5.292 0 003.175-1.067v1.067h2.117v-5.292a5.292 5.292 0 00-5.292-5.291zm12.7 0a5.292 5.292 0 00-5.292 5.291 5.292 5.292 0 005.292 5.292 5.292 5.292 0 003.175-1.067v1.067h2.117v-5.292a5.292 5.292 0 00-5.292-5.291zm10.583 0a3.175 3.175 0 00-3.175 3.175 3.175 3.175 0 003.175 3.175h2.117a1.058 1.058 0 011.058 1.058 1.058 1.058 0 01-1.058 1.058h-4.763v2.117h4.763a3.175 3.175 0 003.175-3.175 3.175 3.175 0 00-3.175-3.175h-2.117a1.058 1.058 0 01-1.058-1.058 1.058 1.058 0 011.058-1.059h4.763v-2.116zm12.7 0a5.292 5.292 0 00-5.291 5.291 5.292 5.292 0 005.291 5.292 5.292 5.292 0 003.175-1.067v1.067H63.5v-5.292a5.292 5.292 0 00-5.292-5.291zm12.7 0a5.292 5.292 0 00-5.291 5.291 5.292 5.292 0 005.291 5.292 5.292 5.292 0 003.175-1.067v1.067H76.2v-5.292a5.292 5.292 0 00-5.292-5.291zm11.642 0a4.233 4.233 0 00-4.233 4.233v6.35h2.116v-6.35a2.117 2.117 0 012.117-2.117 2.117 2.117 0 012.117 2.117v6.35h2.116v-6.35a2.117 2.117 0 012.117-2.117 2.117 2.117 0 012.117 2.117v6.35h2.116v-6.35a4.233 4.233 0 00-4.233-4.233 4.233 4.233 0 00-3.174 1.44 4.233 4.233 0 00-3.176-1.44zm-60.325 2.116a3.175 3.175 0 013.175 3.175 3.175 3.175 0 01-3.175 3.175 3.175 3.175 0 01-3.175-3.175 3.175 3.175 0 013.175-3.175zm12.7 0a3.175 3.175 0 013.175 3.175 3.175 3.175 0 01-3.175 3.175 3.175 3.175 0 01-3.175-3.175 3.175 3.175 0 013.175-3.175zm23.283 0a3.175 3.175 0 013.175 3.175 3.175 3.175 0 01-3.175 3.175 3.175 3.175 0 01-3.175-3.175 3.175 3.175 0 013.175-3.175zm12.7 0a3.175 3.175 0 013.175 3.175 3.175 3.175 0 01-3.175 3.175 3.175 3.175 0 01-3.175-3.175 3.175 3.175 0 013.175-3.175z" fill="#0277bd"/></svg>