<svg xmlns="http://www.w3.org/2000/svg" width="416" height="520" viewBox="0 0 110.067 137.583"><path fill="#ffa000" d="M74.083 53.97L33.867 94.187v5.323h40.216z"/><path fill="#0277bd" d="M55.033 4.26a50.8 50.8 0 00-50.8 50.8 50.8 50.8 0 0050.8 50.8 50.8 50.8 0 0050.8-50.8 50.8 50.8 0 00-50.8-50.8zm0 8.466A42.333 42.333 0 0197.367 55.06a42.333 42.333 0 01-16.934 33.815V55.06a25.4 25.4 0 00-7.45-17.95l7.45-7.45h-25.4a25.4 25.4 0 00-17.949 7.45l-.011-.01-11.974 11.973-5.986 5.987 5.986 5.986 8.98 8.98-11.804 11.806A42.333 42.333 0 0112.7 55.06a42.333 42.333 0 0142.333-42.334zm0 25.4A16.933 16.933 0 0171.967 55.06v38.743a42.333 42.333 0 01-16.934 3.59 42.333 42.333 0 01-26.771-9.575l4.32-4.32 7.765-7.765 5.707-5.706-2.994-2.994-2.994-2.993-8.98-8.98L43.06 43.086l.007.008a16.933 16.933 0 0111.966-4.968zM40.066 64.04l8.449-8.448a5.292 5.292 0 002.285.526 5.292 5.292 0 005.292-5.292 5.292 5.292 0 00-5.292-5.291 5.292 5.292 0 00-5.292 5.291 5.292 5.292 0 003.006 4.766zm-17.841 46.053a5.292 5.292 0 00-5.292 5.292 5.292 5.292 0 005.292 5.291 5.292 5.292 0 003.175-1.066v1.066h2.117v-5.291a5.292 5.292 0 00-5.292-5.292zm12.7 0a5.292 5.292 0 00-5.292 5.292 5.292 5.292 0 005.292 5.291 5.292 5.292 0 003.175-1.066v1.066h2.117v-5.291a5.292 5.292 0 00-5.292-5.292zm10.583 0a3.175 3.175 0 00-3.175 3.175 3.175 3.175 0 003.175 3.175h2.117a1.058 1.058 0 011.058 1.058 1.058 1.058 0 01-1.058 1.059h-4.763v2.116h4.763a3.175 3.175 0 003.175-3.175 3.175 3.175 0 00-3.175-3.175h-2.117a1.058 1.058 0 01-1.058-1.058 1.058 1.058 0 011.058-1.058h4.763v-2.117zm12.7 0a5.292 5.292 0 00-5.291 5.292 5.292 5.292 0 005.291 5.291 5.292 5.292 0 003.175-1.066v1.066H63.5v-5.291a5.292 5.292 0 00-5.292-5.292zm12.7 0a5.292 5.292 0 00-5.291 5.292 5.292 5.292 0 005.291 5.291 5.292 5.292 0 003.175-1.066v1.066H76.2v-5.291a5.292 5.292 0 00-5.292-5.292zm11.642 0a4.233 4.233 0 00-4.233 4.233v6.35h2.116v-6.35a2.117 2.117 0 012.117-2.116 2.117 2.117 0 012.117 2.116v6.35h2.116v-6.35a2.117 2.117 0 012.117-2.116 2.117 2.117 0 012.117 2.116v6.35h2.116v-6.35a4.233 4.233 0 00-4.233-4.233 4.233 4.233 0 00-3.174 1.44 4.233 4.233 0 00-3.176-1.44zm-60.325 2.117a3.175 3.175 0 013.175 3.175 3.175 3.175 0 01-3.175 3.175 3.175 3.175 0 01-3.175-3.175 3.175 3.175 0 013.175-3.175zm12.7 0a3.175 3.175 0 013.175 3.175 3.175 3.175 0 01-3.175 3.175 3.175 3.175 0 01-3.175-3.175 3.175 3.175 0 013.175-3.175zm23.283 0a3.175 3.175 0 013.175 3.175 3.175 3.175 0 01-3.175 3.175 3.175 3.175 0 01-3.175-3.175 3.175 3.175 0 013.175-3.175zm12.7 0a3.175 3.175 0 013.175 3.175 3.175 3.175 0 01-3.175 3.175 3.175 3.175 0 01-3.175-3.175 3.175 3.175 0 013.175-3.175zm4.234 10.583a3.175 3.175 0 00-3.175 3.175h2.116c0-.584.474-1.058 1.059-1.058h5.291v-2.117zm-42.334 2.117a3.175 3.175 0 00-3.175 3.175v5.291h2.117v-5.291c0-.585.474-1.059 1.058-1.059h1.244c-.121.34-.184.698-.185 1.059a3.175 3.175 0 103.175-3.175zm9.525 0v5.291a3.175 3.175 0 003.175 3.175h28.575v-2.116H45.508a1.058 1.058 0 01-1.058-1.059v-5.291zm-5.291 2.116a1.058 1.058 0 110 2.117 1.058 1.058 0 010-2.117zm39.158 0v6.35h2.117v-6.35z"/></svg>