<svg xmlns="http://www.w3.org/2000/svg" width="400" height="400" viewBox="0 0 105.833 105.833"><path d="M52.917 2.117a50.8 50.8 0 00-50.8 50.8 50.8 50.8 0 0050.8 50.8 50.8 50.8 0 0050.8-50.8 50.8 50.8 0 00-50.8-50.8zm0 8.466A42.333 42.333 0 0195.25 52.917a42.333 42.333 0 01-16.933 33.815V52.917a25.4 25.4 0 00-7.45-17.95l7.449-7.45H52.918a25.4 25.4 0 00-17.95 7.45l-.011-.011L22.983 46.93l-5.987 5.987 5.987 5.986 8.98 8.98L20.158 79.69a42.333 42.333 0 01-9.575-26.772 42.333 42.333 0 0142.334-42.334v-.001z"/></svg>