<svg role="img" viewBox="0 0 105.833 105.833" xmlns="http://www.w3.org/2000/svg"><path d="M52.916 2.117a50.8 50.8 0 0 0-50.8 50.8 50.8 50.8 0 0 0 50.8 50.8 50.8 50.8 0 0 0 50.8-50.8 50.8 50.8 0 0 0-50.8-50.8zm0 10.583a12.7 12.7 0 0 1 12.7 12.7 12.7 12.7 0 0 1-12.7 12.7 12.7 12.7 0 0 1-12.7-12.7 12.7 12.7 0 0 1 12.7-12.7zm0 27.517a12.7 12.7 0 0 1 12.7 12.7 12.7 12.7 0 0 1-12.7 12.7 12.7 12.7 0 0 1-12.7-12.7 12.7 12.7 0 0 1 12.7-12.7zm0 27.516a12.7 12.7 0 0 1 12.7 12.7 12.7 12.7 0 0 1-12.7 12.7 12.7 12.7 0 0 1-12.7-12.7 12.7 12.7 0 0 1 12.7-12.7z" fill="#00c853"/></svg>