<svg role="img" viewBox="0 0 105.833 105.833" xmlns="http://www.w3.org/2000/svg"><path d="M52.916 2.117a50.8 50.8 0 0 0-50.8 50.8 50.8 50.8 0 0 0 50.8 50.8 50.8 50.8 0 0 0 50.8-50.8 50.8 50.8 0 0 0-50.8-50.8zm0 16.933c18.695 0 33.867 15.172 33.867 33.867v4.843c0 6.671-5.182 12.09-11.853 12.09-4.03 0-7.823-1.965-10.025-4.979a16.835 16.835 0 0 1-11.989 4.979c-9.347 0-16.933-7.586-16.933-16.933 0-9.348 7.586-16.934 16.934-16.934 9.347 0 16.933 7.586 16.933 16.934v4.843c0 2.675 2.404 5.317 5.08 5.317 2.675 0 5.08-2.642 5.08-5.317v-4.843c0-14.699-12.395-27.094-27.094-27.094-14.698 0-27.093 12.395-27.093 27.093 0 14.699 12.395 27.094 27.093 27.094H69.85v6.773H52.917c-18.695 0-33.867-15.172-33.867-33.867 0-18.694 15.172-33.866 33.867-33.866zm0 23.706a10.147 10.147 0 0 0-10.16 10.16c0 5.622 4.539 10.16 10.16 10.16 5.622 0 10.16-4.538 10.16-10.16 0-5.621-4.538-10.16-10.16-10.16z" fill="#00b8d4" paint-order="markers stroke fill"/></svg>