<svg role="img" viewBox="0 0 105.833 105.833" xmlns="http://www.w3.org/2000/svg"><path d="M52.916 2.117a50.8 50.8 0 0 0-50.8 50.8 50.8 50.8 0 0 0 50.8 50.8 50.8 50.8 0 0 0 50.8-50.8 50.8 50.8 0 0 0-50.8-50.8zm0 16.933a33.867 33.867 0 0 1 33.867 33.867 33.867 33.867 0 0 1-.809 7.162l-4.022-1.248a29.633 29.633 0 0 0 .598-5.914 29.633 29.633 0 0 0-29.633-29.634 29.633 29.633 0 0 0-29.634 29.634A29.633 29.633 0 0 0 52.917 82.55a29.633 29.633 0 0 0 5.905-.627l1.264 4.073a33.867 33.867 0 0 1-7.17.787A33.867 33.867 0 0 1 19.05 52.917 33.867 33.867 0 0 1 52.917 19.05zm0 8.467a25.4 25.4 0 0 1 25.4 25.4 25.4 25.4 0 0 1-.443 4.648l-4.087-1.268a21.167 21.167 0 0 0 .297-3.38A21.167 21.167 0 0 0 52.916 31.75 21.167 21.167 0 0 0 31.75 52.916a21.167 21.167 0 0 0 21.166 21.167 21.167 21.167 0 0 0 3.385-.282l1.263 4.07a25.4 25.4 0 0 1-4.648.445 25.4 25.4 0 0 1-25.4-25.4 25.4 25.4 0 0 1 25.4-25.4zm0 8.466A16.933 16.933 0 0 1 69.85 52.916a16.933 16.933 0 0 1-.154 2.111l-4.121-1.279a12.7 12.7 0 0 0 .041-.831 12.7 12.7 0 0 0-12.7-12.7 12.7 12.7 0 0 0-12.7 12.7 12.7 12.7 0 0 0 12.7 12.7 12.7 12.7 0 0 0 .836-.03L55.03 69.7a16.933 16.933 0 0 1-2.113.149 16.933 16.933 0 0 1-16.933-16.933 16.933 16.933 0 0 1 16.933-16.934zm0 16.933L88.838 64.89l-16.463 7.484-7.484 16.463-11.974-35.92z" fill="#d50000"/></svg>
